<?xml version="1.0" encoding="utf-8"?>
<!-- Generator: Adobe Illustrator 27.3.0, SVG Export Plug-In . SVG Version: 6.00 Build 0)  -->
<svg version="1.1" id="mask-layer" xmlns="http://www.w3.org/2000/svg" xmlns:xlink="http://www.w3.org/1999/xlink" x="0px" y="0px"
	 viewBox="0 0 364 312" style="enable-background:new 0 0 364 312;" xml:space="preserve">
<circle cx="26" cy="26" r="20"/>
<circle cx="78" cy="26" r="20"/>
<circle cx="130" cy="26" r="20"/>
<circle cx="182" cy="26" r="20"/>
<circle cx="234" cy="26" r="20"/>
<circle cx="286" cy="26" r="20"/>
<circle cx="338" cy="26" r="20"/>
<circle cx="26" cy="78" r="20"/>
<circle cx="78" cy="78" r="20"/>
<circle cx="130" cy="78" r="20"/>
<circle cx="182" cy="78" r="20"/>
<circle cx="234" cy="78" r="20"/>
<circle cx="286" cy="78" r="20"/>
<circle cx="338" cy="78" r="20"/>
<circle cx="26" cy="130" r="20"/>
<circle cx="78" cy="130" r="20"/>
<circle cx="130" cy="130" r="20"/>
<circle cx="182" cy="130" r="20"/>
<circle cx="234" cy="130" r="20"/>
<circle cx="286" cy="130" r="20"/>
<circle cx="338" cy="130" r="20"/>
<circle cx="26" cy="182" r="20"/>
<circle cx="78" cy="182" r="20"/>
<circle cx="130" cy="182" r="20"/>
<circle cx="182" cy="182" r="20"/>
<circle cx="234" cy="182" r="20"/>
<circle cx="286" cy="182" r="20"/>
<circle cx="338" cy="182" r="20"/>
<circle cx="26" cy="234" r="20"/>
<circle cx="78" cy="234" r="20"/>
<circle cx="130" cy="234" r="20"/>
<circle cx="182" cy="234" r="20"/>
<circle cx="234" cy="234" r="20"/>
<circle cx="286" cy="234" r="20"/>
<circle cx="338" cy="234" r="20"/>
<circle cx="26" cy="286" r="20"/>
<circle cx="78" cy="286" r="20"/>
<circle cx="130" cy="286" r="20"/>
<circle cx="182" cy="286" r="20"/>
<circle cx="234" cy="286" r="20"/>
<circle cx="286" cy="286" r="20"/>
<circle cx="338" cy="286" r="20"/>
</svg>
